<?xml version="1.0" encoding="UTF-8" standalone="no"?>
<svg
   xmlns:dc="http://purl.org/dc/elements/1.1/"
   xmlns:cc="http://creativecommons.org/ns#"
   xmlns:rdf="http://www.w3.org/1999/02/22-rdf-syntax-ns#"
   xmlns:svg="http://www.w3.org/2000/svg"
   xmlns="http://www.w3.org/2000/svg"
   xmlns:sodipodi="http://sodipodi.sourceforge.net/DTD/sodipodi-0.dtd"
   xmlns:inkscape="http://www.inkscape.org/namespaces/inkscape"
   viewBox="0 0 160 160"
   version="1.1"
   id="svg836"
   sodipodi:docname="earthlib.svg"
   inkscape:version="0.92.4 (5da689c313, 2019-01-14)"
   inkscape:export-filename="/home/cba/favicon.png"
   inkscape:export-xdpi="19.198677"
   inkscape:export-ydpi="19.198677">
  <metadata
     id="metadata840">
    <rdf:RDF>
      <cc:Work
         rdf:about="">
        <dc:format>image/svg+xml</dc:format>
        <dc:type
           rdf:resource="http://purl.org/dc/dcmitype/StillImage" />
        <dc:title />
      </cc:Work>
    </rdf:RDF>
  </metadata>
  <sodipodi:namedview
     pagecolor="#ffffff"
     bordercolor="#666666"
     borderopacity="1"
     objecttolerance="10"
     gridtolerance="10"
     guidetolerance="10"
     inkscape:pageopacity="0"
     inkscape:pageshadow="2"
     inkscape:window-width="2666"
     inkscape:window-height="1616"
     id="namedview838"
     showgrid="false"
     inkscape:zoom="4"
     inkscape:cx="146.85236"
     inkscape:cy="80.32532"
     inkscape:window-x="0"
     inkscape:window-y="80"
     inkscape:window-maximized="1"
     inkscape:current-layer="line-6"
     inkscape:pagecheckerboard="true" />
  <defs
     id="defs817">
    <style
       id="style815">.cls-1{fill:#fff;}.cls-2{fill:#fdd37d;}.cls-3{fill:#f2a640;}.cls-4{fill:#174f3a;}</style>
  </defs>
  <g
     id="Layer_2"
     data-name="Layer 2">
    <g
       id="logo">
      <g
         inkscape:groupmode="layer"
         id="layer1"
         inkscape:label="circle">
        <circle
           style="fill:#222222;fill-opacity:1;stroke:#ff9030;stroke-width:2.83464567;stroke-miterlimit:4;stroke-dasharray:none;stroke-opacity:1"
           id="path853"
           cx="80"
           cy="80"
           r="80" />
        <g
           id="g2375"
           transform="matrix(2.3366014,0,0,2.3365989,-4.7713827,-1.396994)">
          <g
             id="color-3">
            <path
               id="path2334"
               d="M 61.2167,21.6411 37.911,15.0386 a 1.0068,1.0068 0 0 0 -0.5537,0.0019 l -22.5947,6.627 a 0.9484,0.9484 0 0 0 -0.1365,0.0719 5.3829,5.3829 0 0 0 -1.8343,9.5426 5.3642,5.3642 0 0 0 0.0663,8.6968 5.3776,5.3776 0 0 0 1.4856,9.5022 l 23.0146,6.7128 a 1.0034,1.0034 0 0 0 0.5547,0.002 l 23.3057,-6.6514 a 1.0008,1.0008 0 0 0 0.7255,-0.9619 V 22.603 a 1,1 0 0 0 -0.7275,-0.9619 z"
               inkscape:connector-curvature="0"
               style="fill:#eeeeee;fill-opacity:1" />
            <polygon
               id="polygon2336"
               points="15.044,22.603 37.638,15.976 60.944,22.579 37.638,29.231 "
               style="fill:#ff9030;fill-opacity:1" />
            <path
               id="path2338"
               d="m 15.0823,24.7275 21.9933,6.4465 a 2,2 0 0 0 1.1113,0.0039 l 23.2947,-6.7653 a 0.613,0.613 0 0 0 0.442,-0.5794 L 61.9425,22.5824 37.6381,29.2547 15.08,22.6425 a 4.4,4.4 0 0 0 -0.4554,8.4813 l 23.014,6.713 24.2115,-6.91 0.04,-1.2423 A 0.6255,0.6255 0 0 0 61.0933,29.063 l -23.4491,6.6922 -22.4226,-6.54 a 2.4,2.4 0 0 1 -0.1393,-4.4873"
               inkscape:connector-curvature="0"
               style="fill:#ff9030;fill-opacity:1" />
            <path
               id="path2340"
               d="m 15.0823,33.4092 21.9933,6.4465 a 1.9988,1.9988 0 0 0 1.1113,0.004 l 23.2947,-6.7653 a 0.6131,0.6131 0 0 0 0.442,-0.5794 L 61.9425,31.2642 37.6381,37.9365 15.08,31.3243 a 4.4,4.4 0 0 0 -0.4554,8.4813 l 23.014,6.713 24.2115,-6.91 0.04,-1.2424 A 0.6254,0.6254 0 0 0 61.0933,37.7448 L 37.6442,44.437 15.2216,37.897 a 2.4,2.4 0 0 1 -0.1393,-4.4873"
               inkscape:connector-curvature="0"
               style="fill:#0ca6f2;fill-opacity:1" />
            <path
               id="path2342"
               d="m 15.0823,42.1549 21.9933,6.4465 a 2,2 0 0 0 1.1113,0.0039 L 61.4816,41.84 a 0.613,0.613 0 0 0 0.442,-0.5794 L 61.9425,40.0099 37.6381,46.6821 15.08,40.07 a 4.4,4.4 0 0 0 -0.4554,8.4813 l 23.014,6.713 24.2115,-6.91 0.04,-1.2424 a 0.6254,0.6254 0 0 0 -0.7968,-0.6214 l -23.4491,6.6922 -22.4226,-6.54 a 2.4,2.4 0 0 1 -0.1393,-4.4873"
               inkscape:connector-curvature="0"
               style="fill:#ff5b30;fill-opacity:1" />
            <polygon
               id="polygon2344"
               points="21.81,24.504 44.32,17.794 38.594,16.172 16,22.799 "
               style="fill:#ff9030;fill-opacity:1" />
          </g>
          <g
             id="line-6">
            <polygon
               id="polygon2347"
               points="15.044,22.627 37.638,16 60.944,22.603 37.638,29.255 "
               style="fill:none;stroke:#222222;stroke-width:2;stroke-linecap:round;stroke-linejoin:round;stroke-opacity:1" />
            <path
               id="path2349"
               d="m 15.08,22.6425 c -4.388586,0.940219 -4.718074,7.076555 -0.4554,8.4813 l 23.0141,6.713 24.2114,-6.91"
               inkscape:connector-curvature="0"
               style="fill:none;stroke:#222222;stroke-width:2;stroke-linecap:round;stroke-linejoin:round;stroke-opacity:1"
               sodipodi:nodetypes="cccc" />
            <path
               id="path2351"
               d="m 15.08,31.2942 a 4.4,4.4 0 0 0 -0.4554,8.4813 l 23.0141,6.713 23.3057,-6.6516"
               inkscape:connector-curvature="0"
               style="fill:none;stroke:#222222;stroke-width:1.99991428;stroke-linecap:round;stroke-linejoin:round;stroke-opacity:1;stroke-miterlimit:4;stroke-dasharray:none" />
            <path
               id="path2353"
               d="m 15.08,40.04 c -4.388586,0.940219 -4.718074,7.076555 -0.4554,8.4813 l 23.0141,6.713 23.792732,-6.760355"
               inkscape:connector-curvature="0"
               style="fill:none;stroke:#222222;stroke-width:2;stroke-linecap:round;stroke-linejoin:round;stroke-opacity:1"
               sodipodi:nodetypes="cccc" />
            <path
               style="fill:none;stroke:#222222;stroke-width:1.25923693;stroke-linecap:butt;stroke-linejoin:miter;stroke-miterlimit:4;stroke-dasharray:none;stroke-opacity:1"
               d="M 61.851107,22.317478 V 49.07651"
               id="path2377"
               inkscape:connector-curvature="0" />
          </g>
        </g>
      </g>
    </g>
  </g>
</svg>
