<svg xmlns="http://www.w3.org/2000/svg" viewBox="0 0 160 160"><defs><style>.cls-1{fill:#fff;}.cls-2{fill:#fdd37d;}.cls-3{fill:#f2a640;}.cls-4{fill:#174f3a;}</style></defs><g id="Layer_2" data-name="Layer 2"><g id="logo"><g id="symbol-color-white"><path class="cls-1" d="M135,50A25,25,0,0,1,116.12,8.62a80,80,0,1,0,35.26,35.26A24.9,24.9,0,0,1,135,50Z"/><g id="sunset"><path class="cls-2" d="M2.52,100v0h0Z"/><path class="cls-2" d="M157.48,100h0v0Z"/><path class="cls-2" d="M151.38,43.88A25,25,0,0,1,116.12,8.62,80,80,0,0,0,2.52,100a98,98,0,0,1,155,0,80.18,80.18,0,0,0-6.1-56.11Z"/><path class="cls-3" d="M80,62A97.82,97.82,0,0,0,2.52,100a80,80,0,0,0,27,42,98,98,0,0,1,101,0,80,80,0,0,0,27-42A97.82,97.82,0,0,0,80,62Z"/></g><path class="cls-4" d="M74.17,159.77c1.93.13,3.87.23,5.83.23s4.14-.1,6.18-.26c-1.24-9.67-2-27.43-2-37.74v-1.89A82.26,82.26,0,0,1,98,122l-6-8a99.2,99.2,0,0,0,14,2,98.75,98.75,0,0,0,14,0,91,91,0,0,1-16-12q-2.13-2-4-4a71,71,0,0,0,14,2c2.11.09,4.11.08,6,0L98,80a34.54,34.54,0,0,0,14,4,31.38,31.38,0,0,0,4,0L96,64a31.4,31.4,0,0,0,14,4c.68,0,1.35,0,2,0q-9-10.3-18-22-3.09-4-6-8a13.23,13.23,0,0,0,8,4,12.13,12.13,0,0,0,2,0A128.79,128.79,0,0,1,85.83,26C83.6,22.55,81.67,19.19,80,16q-2.79,4.86-6.17,10A190.84,190.84,0,0,1,62,42a12.13,12.13,0,0,0,2,0,13.23,13.23,0,0,0,8-4q-2.91,4-6,8Q57,57.7,48,68c.65,0,1.32,0,2,0a31.4,31.4,0,0,0,14-4L44,84a31.38,31.38,0,0,0,4,0,34.54,34.54,0,0,0,14-4L38,102a76.14,76.14,0,0,0,8,0,78.14,78.14,0,0,0,14-2q-1.92,2-4,4a156.85,156.85,0,0,1-14,12,92.15,92.15,0,0,0,12,0,91.66,91.66,0,0,0,14-2l-6,8a82.31,82.31,0,0,1,14.17-1.9c0,.63,0,1.26,0,1.9C76.13,132.29,75.4,150.08,74.17,159.77ZM80,120h0Z"/><path id="satellite" class="cls-4" d="M152,24a16,16,0,0,0-27.86-10.71,80.91,80.91,0,0,1,9.17,7.09,4.56,4.56,0,0,0,6.31,6.31,80.91,80.91,0,0,1,7.09,9.17A16,16,0,0,0,152,24Z"/></g></g></g></svg>
