<?xml version="1.0" encoding="UTF-8" standalone="no"?>
<svg
   xmlns:dc="http://purl.org/dc/elements/1.1/"
   xmlns:cc="http://creativecommons.org/ns#"
   xmlns:rdf="http://www.w3.org/1999/02/22-rdf-syntax-ns#"
   xmlns:svg="http://www.w3.org/2000/svg"
   xmlns="http://www.w3.org/2000/svg"
   xmlns:sodipodi="http://sodipodi.sourceforge.net/DTD/sodipodi-0.dtd"
   xmlns:inkscape="http://www.inkscape.org/namespaces/inkscape"
   viewBox="0 0 160 160"
   version="1.1"
   id="svg197"
   sodipodi:docname="symbol-earthlib.svg"
   inkscape:version="0.92.4 (5da689c313, 2019-01-14)">
  <metadata
     id="metadata201">
    <rdf:RDF>
      <cc:Work
         rdf:about="">
        <dc:format>image/svg+xml</dc:format>
        <dc:type
           rdf:resource="http://purl.org/dc/dcmitype/StillImage" />
        <dc:title></dc:title>
      </cc:Work>
    </rdf:RDF>
  </metadata>
  <sodipodi:namedview
     pagecolor="#ffffff"
     bordercolor="#666666"
     borderopacity="1"
     objecttolerance="10"
     gridtolerance="10"
     guidetolerance="10"
     inkscape:pageopacity="0"
     inkscape:pageshadow="2"
     inkscape:window-width="2666"
     inkscape:window-height="1616"
     id="namedview199"
     showgrid="false"
     inkscape:zoom="4.17193"
     inkscape:cx="98.281664"
     inkscape:cy="72.032996"
     inkscape:window-x="0"
     inkscape:window-y="80"
     inkscape:window-maximized="1"
     inkscape:current-layer="symbol-color-white" />
  <defs
     id="defs178">
    <style
       id="style176">.cls-1{fill:#fff;}.cls-2{fill:#fdd37d;}.cls-3{fill:#f2a640;}.cls-4{fill:#174f3a;}</style>
  </defs>
  <g
     id="Layer_2"
     data-name="Layer 2">
    <g
       id="logo">
      <g
         id="symbol-color-white">
        <path
           class="cls-1"
           d="M135,50A25,25,0,0,1,116.12,8.62a80,80,0,1,0,35.26,35.26A24.9,24.9,0,0,1,135,50Z"
           id="path180" />
        <g
           id="sunset">
          <path
             class="cls-2"
             d="M2.52,100v0h0Z"
             id="path182" />
          <path
             class="cls-2"
             d="M157.48,100h0v0Z"
             id="path184" />
          <path
             class="cls-2"
             d="M151.38,43.88A25,25,0,0,1,116.12,8.62,80,80,0,0,0,2.52,100a98,98,0,0,1,155,0,80.18,80.18,0,0,0-6.1-56.11Z"
             id="path186" />
          <path
             class="cls-3"
             d="M80,62A97.82,97.82,0,0,0,2.52,100a80,80,0,0,0,27,42,98,98,0,0,1,101,0,80,80,0,0,0,27-42A97.82,97.82,0,0,0,80,62Z"
             id="path188" />
        </g>
        <path
           id="satellite"
           class="cls-4"
           d="M152,24a16,16,0,0,0-27.86-10.71,80.91,80.91,0,0,1,9.17,7.09,4.56,4.56,0,0,0,6.31,6.31,80.91,80.91,0,0,1,7.09,9.17A16,16,0,0,0,152,24Z"
           style="fill:#ffffff;fill-opacity:1" />
        <path
           inkscape:connector-curvature="0"
           id="path74"
           d="m 75.416322,143.29992 c -1.741414,-1.81291 -5.138253,-4.64309 -8.090946,-6.74127 -7.720042,-5.48581 -17.958365,-9.70117 -27.729444,-11.41688 -2.245472,-0.39428 -8.082485,-1.0786 -9.200102,-1.0786 -0.452874,0 -0.459462,-0.28746 -0.304722,-13.29379 0.08701,-7.31158 0.15876,-22.13869 0.159503,-32.949139 l 0.0018,-19.655352 1.509509,0.133295 c 4.979291,0.43969 11.156011,1.754004 16.363027,3.481826 10.620446,3.524124 21.121463,10.711951 27.975338,19.148789 l 1.248669,1.537061 v 31.23993 c 0,17.18195 -0.08152,31.23735 -0.181141,31.23419 -0.09963,-0.003 -0.887586,-0.74117 -1.751025,-1.64006 z m 7.487139,-29.67367 V 82.252501 l 2.109722,-2.506795 C 87.29456,77.034941 92.311727,72.399259 95.221027,70.314027 104.71079,63.512247 115.73546,59.527933 128.4905,58.290446 L 130,58.144 v 32.95958 c 0,31.29037 -0.0214,32.95959 -0.42414,32.95959 -0.88643,0 -6.53664,0.65102 -8.2706,0.95295 -5.20641,0.90656 -9.73247,2.16811 -14.4665,4.03227 -7.863626,3.09652 -14.674608,7.36326 -20.754402,13.00167 L 82.903461,145 Z"
           style="fill:#174f3a;fill-opacity:1;stroke-width:0.22802491"
           sodipodi:nodetypes="cccscccscscscccccssccsscsccc" />
      </g>
    </g>
  </g>
</svg>
